<?xml version="1.0" encoding="utf-8"?>
<svg xmlns="http://www.w3.org/2000/svg" version="1.1" width="1080" height="1080" viewBox="-160.16 -200.15 920 900">
  <desc>Created with Fabric.js 5.2.4</desc>
  <defs>
    <mask id="mask-0">
      <g transform="matrix(0.757576, 0, 0, 0.757576, -36.895042, 47.092484)" style="">
        <path style="stroke: none; stroke-width: 1; stroke-dasharray: none; stroke-linecap: butt; stroke-dashoffset: 0; stroke-linejoin: miter; stroke-miterlimit: 4; fill: rgb(255,255,255); fill-rule: nonzero; opacity: 1;" vector-effect="non-scaling-stroke" d="M 1270.31 242.99 L 1263.51 242.99 L 1263.51 228.33 L 1234.19 228.33 L 1234.19 213.67000000000002 L 1226.3400000000001 213.67000000000002 L 1226.3400000000001 228.33 L 1211.68 228.33 L 1211.68 213.67000000000002 L 1203.8300000000002 213.67000000000002 L 1203.8300000000002 314.08000000000004 L 1087.6100000000001 314.08000000000004 L 1087.6100000000001 328.74000000000007 L 1102.2700000000002 328.74000000000007 L 1102.2700000000002 387.37000000000006 L 1087.6100000000001 387.37000000000006 L 1087.6100000000001 438.6700000000001 L 1102.2700000000002 438.6700000000001 L 1102.2700000000002 409.3500000000001 L 1109.0800000000002 409.3500000000001 L 1109.0800000000002 394.69000000000005 L 1131.5900000000001 394.69000000000005 L 1131.5900000000001 438.6700000000001 L 1146.2500000000002 438.6700000000001 L 1146.2500000000002 380.0400000000001 L 1153.0600000000002 380.0400000000001 L 1153.0600000000002 372.7100000000001 L 1197.0400000000002 372.7100000000001 L 1197.0400000000002 438.6700000000001 L 1211.7000000000003 438.6700000000001 L 1211.7000000000003 380.0400000000001 L 1219.5500000000002 380.0400000000001 L 1219.5500000000002 365.38000000000005 L 1234.2100000000003 365.38000000000005 L 1234.2100000000003 350.72 L 1255.6700000000003 350.72 L 1255.6700000000003 314.08000000000004 L 1248.8700000000003 314.08000000000004 L 1248.8700000000003 257.64000000000004 L 1248.8700000000003 257.64000000000004 C 1248.8700000000003 257.64000000000004 1255.6700000000003 257.64000000000004 1255.6700000000003 257.64000000000004 L 1278.1800000000003 257.64000000000004 L 1278.1800000000003 250.31000000000003 L 1278.1800000000003 250.31000000000003 L 1278.1800000000003 242.98000000000002 L 1270.3300000000004 242.98000000000002 Z M 1239.76 252.49 C 1234.52 252.49 1230.27 248.24 1230.27 243 C 1230.27 237.76 1234.52 233.51 1239.76 233.51 C 1245 233.51 1249.25 237.76 1249.25 243 C 1249.25 248.24 1245 252.49 1239.76 252.49 Z" stroke-linecap="round" transform=" translate(-1182.9, -326.17)"/>
      </g>
    </mask>
  </defs>
  <g transform="matrix(7.490611, 0, 0, 7.490611, 297.62915, 245.419479)" style="">
    <ellipse style="stroke-opacity: 0; stroke: rgba(0, 0, 0, 0);" cx="0.003" cy="0.004" rx="60.002" ry="60.002"/>
    <circle style="stroke: none; stroke-width: 1; stroke-dasharray: none; stroke-linecap: butt; stroke-dashoffset: 0; stroke-linejoin: miter; stroke-miterlimit: 4; fill-rule: nonzero; opacity: 1; mask: url(&quot;#mask-0&quot;); fill: rgb(255, 255, 255);" vector-effect="non-scaling-stroke" cx="0" cy="0" r="60"/>
  </g>
</svg>