<?xml version="1.0" encoding="UTF-8"?>
<svg id="Layer_1" xmlns="http://www.w3.org/2000/svg" version="1.1" viewBox="0 0 926.6 540">
  <!-- Generator: Adobe Illustrator 29.5.1, SVG Export Plug-In . SVG Version: 2.1.0 Build 141)  -->
  <defs>
    <style>
      .st0 {
        fill: #fff;
      }
    </style>
  </defs>
  <path class="st0" d="M200.92,172.08h-77.21v77.21h77.21v19.3h-96.52V75.56h96.52v19.3h-77.21v57.91h77.21v19.3ZM220.23,152.77h-19.3v-57.91h19.3v57.91ZM220.23,172.08v77.21h-19.3v-77.21h19.3ZM360.96,268.59h-115.82V75.56h19.3v173.73h96.52v19.3ZM397.25,229.98v38.61h-19.3v-38.61h19.3ZM474.46,229.98v-19.3h-57.91v19.3h-19.3v-57.91h19.3v19.3h57.91v-19.3h19.3v57.91h-19.3ZM416.55,172.08v-57.91h19.3v57.91h-19.3ZM435.85,114.17v-38.61h19.3v38.61h-19.3ZM474.46,114.17v57.91h-19.3v-57.91h19.3ZM513.06,268.59h-19.3v-38.61h19.3v38.61ZM541.63,114.17v115.82h-19.3v-115.82h19.3ZM560.94,94.86v19.3h-19.3v-19.3h19.3ZM541.63,229.98h19.3v19.3h-19.3v-19.3ZM638.15,94.86h-77.21v-19.3h77.21v19.3ZM560.94,249.29h77.21v19.3h-77.21v-19.3ZM657.45,114.17h-19.3v-19.3h19.3v19.3ZM638.15,249.29v-19.3h19.3v19.3h-19.3ZM657.45,114.17h19.3v19.3h-19.3v-19.3ZM657.45,229.98v-19.3h19.3v19.3h-19.3ZM713.04,191.38v77.21h-19.3V75.56h19.3v77.21h19.3v38.61h-19.3ZM732.34,152.77v-19.3h19.3v19.3h-19.3ZM732.34,191.38h19.3v19.3h-19.3v-19.3ZM751.65,133.47v-19.3h19.3v19.3h-19.3ZM751.65,210.68h19.3v19.3h-19.3v-19.3ZM770.95,114.17v-19.3h19.3v19.3h-19.3ZM770.95,229.98h19.3v19.3h-19.3v-19.3ZM790.25,94.86v-19.3h19.3v19.3h-19.3ZM790.25,249.29h19.3v19.3h-19.3v-19.3ZM67.17,451.13v38.61h-19.3v-38.61h19.3ZM144.38,451.13v-19.3h-57.91v19.3h-19.3v-57.91h19.3v19.3h57.91v-19.3h19.3v57.91h-19.3ZM86.47,393.22v-57.91h19.3v57.91h-19.3ZM105.77,335.31v-38.61h19.3v38.61h-19.3ZM144.38,335.31v57.91h-19.3v-57.91h19.3ZM182.98,489.74h-19.3v-38.61h19.3v38.61ZM315.79,489.74h-115.82v-193.03h19.3v173.73h96.52v19.3ZM429.29,412.53h-77.21v77.21h-19.3v-193.03h96.52v19.3h-77.21v77.21h77.21v19.3ZM448.59,393.22h-19.3v-77.21h19.3v77.21ZM457.86,451.13v38.61h-19.3v-38.61h19.3ZM535.07,451.13v-19.3h-57.91v19.3h-19.3v-57.91h19.3v19.3h57.91v-19.3h19.3v57.91h-19.3ZM477.16,393.22v-57.91h19.3v57.91h-19.3ZM496.46,335.31v-38.61h19.3v38.61h-19.3ZM535.07,335.31v57.91h-19.3v-57.91h19.3ZM573.67,489.74h-19.3v-38.61h19.3v38.61ZM602.24,335.31v115.82h-19.3v-115.82h19.3ZM621.55,316.01v19.3h-19.3v-19.3h19.3ZM602.24,451.13h19.3v19.3h-19.3v-19.3ZM698.76,316.01h-77.21v-19.3h77.21v19.3ZM621.55,470.44h77.21v19.3h-77.21v-19.3ZM718.06,335.31h-19.3v-19.3h19.3v19.3ZM698.76,470.44v-19.3h19.3v19.3h-19.3ZM718.06,335.31h19.3v19.3h-19.3v-19.3ZM718.06,451.13v-19.3h19.3v19.3h-19.3ZM765.93,451.13v38.61h-19.3v-38.61h19.3ZM843.14,451.13v-19.3h-57.91v19.3h-19.3v-57.91h19.3v19.3h57.91v-19.3h19.3v57.91h-19.3ZM785.24,393.22v-57.91h19.3v57.91h-19.3ZM804.54,335.31v-38.61h19.3v38.61h-19.3ZM843.14,335.31v57.91h-19.3v-57.91h19.3ZM881.75,489.74h-19.3v-38.61h19.3v38.61Z"/>
</svg>