<?xml version="1.0" encoding="UTF-8"?>
<svg id="Layer_1" xmlns="http://www.w3.org/2000/svg" version="1.1" viewBox="0 0 1222.6 292.3">
  <!-- Generator: Adobe Illustrator 29.5.1, SVG Export Plug-In . SVG Version: 2.1.0 Build 141)  -->
  <defs>
    <style>
      .st0 {
        fill: #fff;
      }
    </style>
  </defs>
  <path class="st0" d="M173.89,141.73h-97.09v97.09h97.09v24.27H52.53V20.37h121.36v24.27h-97.09v72.82h97.09v24.27ZM198.16,117.46h-24.27V44.64h24.27v72.82ZM198.16,141.73v97.09h-24.27v-97.09h24.27ZM375.13,263.1h-145.64V20.37h24.27v218.45h121.36v24.27ZM430.73,166.01v97.09h-24.27V20.37h24.27v97.09h24.27v48.55h-24.27ZM455,117.46v-24.27h24.27v24.27h-24.27ZM455,166.01h24.27v24.27h-24.27v-24.27ZM479.27,93.19v-24.27h24.27v24.27h-24.27ZM479.27,190.28h24.27v24.27h-24.27v-24.27ZM503.55,68.92v-24.27h24.27v24.27h-24.27ZM503.55,214.55h24.27v24.27h-24.27v-24.27ZM527.82,44.64v-24.27h24.27v24.27h-24.27ZM527.82,238.83h24.27v24.27h-24.27v-24.27ZM691.78,214.55v48.55h-24.27v-48.55h24.27ZM788.87,214.55v-24.27h-72.82v24.27h-24.27v-72.82h24.27v24.27h72.82v-24.27h24.27v72.82h-24.27ZM716.06,141.73v-72.82h24.27v72.82h-24.27ZM740.33,68.92V20.37h24.27v48.55h-24.27ZM788.87,68.92v72.82h-24.27v-72.82h24.27ZM837.42,263.1h-24.27v-48.55h24.27v48.55ZM1004.41,263.1h-145.64V20.37h24.27v218.45h121.36v24.27ZM1147.13,166.01h-97.09v97.09h-24.27V20.37h121.36v24.27h-97.09v97.09h97.09v24.27ZM1171.4,141.73h-24.27V44.64h24.27v97.09Z"/>
</svg>