<?xml version="1.0" encoding="UTF-8"?>
<svg id="Layer_1" xmlns="http://www.w3.org/2000/svg" version="1.1" viewBox="0 0 1920 292.3">
  <!-- Generator: Adobe Illustrator 29.5.1, SVG Export Plug-In . SVG Version: 2.1.0 Build 141)  -->
  <defs>
    <style>
      .st0 {
        fill: #fff;
      }
    </style>
  </defs>
  <path class="st0" d="M169.08,141.72h-84.41v84.41h84.41v21.1H63.56V36.2h105.51v21.1h-84.41v63.31h84.41v21.1ZM190.18,120.61h-21.1v-63.31h21.1v63.31ZM190.18,141.72v84.41h-21.1v-84.41h21.1ZM344.03,247.23h-126.62V36.2h21.1v189.92h105.51v21.1ZM383.7,205.02v42.21h-21.1v-42.21h21.1ZM468.11,205.02v-21.1h-63.31v21.1h-21.1v-63.31h21.1v21.1h63.31v-21.1h21.1v63.31h-21.1ZM404.8,141.72v-63.31h21.1v63.31h-21.1ZM425.91,78.41v-42.21h21.1v42.21h-21.1ZM468.11,78.41v63.31h-21.1v-63.31h21.1ZM510.32,247.23h-21.1v-42.21h21.1v42.21ZM541.55,78.41v126.62h-21.1v-126.62h21.1ZM562.65,57.31v21.1h-21.1v-21.1h21.1ZM541.55,205.02h21.1v21.1h-21.1v-21.1ZM647.06,57.31h-84.41v-21.1h84.41v21.1ZM562.65,226.13h84.41v21.1h-84.41v-21.1ZM668.16,78.41h-21.1v-21.1h21.1v21.1ZM647.06,226.13v-21.1h21.1v21.1h-21.1ZM668.16,78.41h21.1v21.1h-21.1v-21.1ZM668.16,205.02v-21.1h21.1v21.1h-21.1ZM728.94,162.82v84.41h-21.1V36.2h21.1v84.41h21.1v42.21h-21.1ZM750.04,120.61v-21.1h21.1v21.1h-21.1ZM750.04,162.82h21.1v21.1h-21.1v-21.1ZM771.14,99.51v-21.1h21.1v21.1h-21.1ZM771.14,183.92h21.1v21.1h-21.1v-21.1ZM792.24,78.41v-21.1h21.1v21.1h-21.1ZM792.24,205.02h21.1v21.1h-21.1v-21.1ZM813.35,57.31v-21.1h21.1v21.1h-21.1ZM813.35,226.13h21.1v21.1h-21.1v-21.1ZM948.04,205.03v42.21h-21.1v-42.21h21.1ZM1032.45,205.03v-21.1h-63.31v21.1h-21.1v-63.31h21.1v21.1h63.31v-21.1h21.1v63.31h-21.1ZM969.14,141.72v-63.31h21.1v63.31h-21.1ZM990.25,78.41v-42.21h21.1v42.21h-21.1ZM1032.45,78.41v63.31h-21.1v-63.31h21.1ZM1074.66,247.23h-21.1v-42.21h21.1v42.21ZM1219.84,247.23h-126.62V36.21h21.1v189.92h105.51v21.1ZM1343.92,162.82h-84.41v84.41h-21.1V36.21h105.51v21.1h-84.41v84.41h84.41v21.1ZM1365.02,141.72h-21.1V57.31h21.1v84.41ZM1375.15,205.03v42.21h-21.1v-42.21h21.1ZM1459.56,205.03v-21.1h-63.31v21.1h-21.1v-63.31h21.1v21.1h63.31v-21.1h21.1v63.31h-21.1ZM1396.25,141.72v-63.31h21.1v63.31h-21.1ZM1417.36,78.41v-42.21h21.1v42.21h-21.1ZM1459.56,78.41v63.31h-21.1v-63.31h21.1ZM1501.77,247.23h-21.1v-42.21h21.1v42.21ZM1533,78.41v126.62h-21.1v-126.62h21.1ZM1554.1,57.31v21.1h-21.1v-21.1h21.1ZM1533,205.03h21.1v21.1h-21.1v-21.1ZM1638.51,57.31h-84.41v-21.1h84.41v21.1ZM1554.1,226.13h84.41v21.1h-84.41v-21.1ZM1659.62,78.41h-21.1v-21.1h21.1v21.1ZM1638.51,226.13v-21.1h21.1v21.1h-21.1ZM1659.62,78.41h21.1v21.1h-21.1v-21.1ZM1659.62,205.03v-21.1h21.1v21.1h-21.1ZM1711.95,205.03v42.21h-21.1v-42.21h21.1ZM1796.36,205.03v-21.1h-63.31v21.1h-21.1v-63.31h21.1v21.1h63.31v-21.1h21.1v63.31h-21.1ZM1733.05,141.72v-63.31h21.1v63.31h-21.1ZM1754.15,78.41v-42.21h21.1v42.21h-21.1ZM1796.36,78.41v63.31h-21.1v-63.31h21.1ZM1838.57,247.23h-21.1v-42.21h21.1v42.21Z"/>
</svg>