<?xml version="1.0" encoding="UTF-8"?>
<svg xmlns="http://www.w3.org/2000/svg" version="1.1" viewBox="0 0 1920 1080">
  <!-- Generator: Adobe Illustrator 29.5.1, SVG Export Plug-In . SVG Version: 2.1.0 Build 141)  -->
  <defs>
    <style>
      .st0, .st1 {
        fill: none;
      }

      .st1 {
        stroke: #231f20;
        stroke-miterlimit: 10;
      }

      .st2 {
        fill: #fff;
      }
      .circle{
      fill:#f73928
      }
    </style>
  </defs>
  <!-- <g id="BG">
    <rect x="980.37" y="100.45" width="939.63" height="979.55"/>
  </g> -->
  <g id="Alpacas">
  <!-- Alpaca negra sin ojo -->
    <g>
      <path d="M305.58,242.99h-6.8v-14.66h-29.32v-14.66h-7.85v14.66h-14.66v-14.66h-7.85v100.41h-116.22v14.66h14.66v58.63h-14.66v51.3h14.66v-29.32h6.81v-14.66h22.51v43.98h14.66v-58.63h6.81v-7.33h43.98v65.96h14.66v-58.63h7.85v-14.66h14.66v-14.66h21.46v-36.64h-6.8v-56.44h0s6.8,0,6.8,0h22.51v-7.33h0v-7.33h-7.85ZM275.03,252.49c-5.24,0-9.49-4.25-9.49-9.49s4.25-9.49,9.49-9.49,9.49,4.25,9.49,9.49-4.25,9.49-9.49,9.49Z"/>
      <polygon points="254.8 394.71 254.8 402.04 254.8 409.37 254.8 416.7 254.8 424.03 254.8 431.36 254.8 438.69 261.61 438.69 269.46 438.69 269.46 431.36 269.46 424.03 269.46 416.7 269.46 409.37 269.46 402.04 269.46 394.71 269.46 387.38 269.46 380.05 261.61 380.05 254.8 380.05 254.8 387.38 254.8 394.71"/>
      <rect x="108.21" y="328.77" width="14.66" height="14.66"/>
      <circle class="st2" cx="521.22" cy="557.08" r="9.49" transform="translate(-318.78 723.93) rotate(-85.93)"/>
    </g>
    <g>
      <path d="M577.71,240.11h-6.8v-14.66h-22.78l19.16-4.34-3.24-14.3-22.46,5.09h0s2.67-.61,2.67-.61l-3.24-14.3-44.01,9.97,3.24,14.3-19.78,4.48,3.24,14.3,27.51-6.23v77.39h-116.22v14.61h-14.66v14.66h14.66v-14.61h14.66v58.63h-14.66v51.3h14.66v-29.32h6.81v-14.66h22.51v43.98h14.66v-58.63h6.81v-7.33h43.98v65.96h14.66v-58.63h7.85v-14.66h14.66v-14.66h21.46v-36.64h-6.8v-56.44h0s6.8,0,6.8,0h22.51v-7.33h0v-7.33h-7.85ZM547.16,249.6c-5.24,0-9.49-4.25-9.49-9.49s4.25-9.49,9.49-9.49,9.49,4.25,9.49,9.49-4.25,9.49-9.49,9.49Z"/>
      <polygon points="526.93 391.82 526.93 399.15 526.93 406.48 526.93 413.81 526.93 421.14 526.93 428.47 526.93 435.8 533.74 435.8 541.59 435.8 541.59 428.47 541.59 421.14 541.59 413.81 541.59 406.48 541.59 399.15 541.59 391.82 541.59 384.5 541.59 377.17 533.74 377.17 526.93 377.17 526.93 384.5 526.93 391.82"/>
    </g>
    <g>
      <polygon points="510.43 687.97 510.43 695.3 510.43 702.62 510.43 709.96 510.43 717.28 510.43 724.61 510.43 731.94 517.24 731.94 525.09 731.94 525.09 724.61 525.09 717.28 525.09 709.96 525.09 702.62 525.09 695.3 525.09 687.97 525.09 680.64 525.09 673.31 517.24 673.31 510.43 673.31 510.43 680.64 510.43 687.97"/>
      <path d="M538.32,592.68v-62.73l27.51,6.23,3.24-14.3-19.78-4.48,3.24-14.3-44.01-9.97-3.24,14.3-19.78-4.48-3.24,14.3,19.16,4.34h-22.78v14.66h-14.66v7.33h0v7.33h29.32v56.44h-114.79v14.61h-14.66v14.66h14.66v-14.61h14.66v58.63h-14.66v51.3h14.66v-29.32h6.81v-14.66h22.51v43.98h14.66v-58.63h6.81v-7.33h43.98v65.96h14.66v-58.63h7.85v-14.66h14.66v-14.66h21.46v-36.64h-8.24v-14.66ZM507.95,508.04h0s-2.03-.46-2.03-.46l2.03.46ZM492.89,536.25c0-5.24,4.25-9.49,9.49-9.49s9.5,4.25,9.5,9.49-4.25,9.49-9.5,9.49-9.49-4.25-9.49-9.49Z"/>
    </g>
    <rect class="st0" x="805.53" y="575.85" width="6.7" height="6.7"/>
    <rect class="st0" x="788.61" y="534.94" width="6.7" height="6.7"/>
    <rect class="st0" x="781.91" y="528.23" width="6.7" height="6.7"/>
    <polygon class="st0" points="835.42 868.12 835.42 888.92 842.13 888.92 842.13 861.42 835.42 861.42 835.42 868.12"/>
    <rect class="st0" x="842.13" y="888.92" width="6.7" height="6.7"/>
    <rect class="st0" x="835.42" y="854.71" width="6.7" height="6.7"/>
    <rect class="st0" x="842.13" y="848.01" width="6.7" height="6.7"/>
    <rect class="st0" x="848.83" y="841.31" width="6.7" height="6.7"/>
    <rect class="st0" x="828.72" y="861.42" width="6.7" height="6.7"/>
    <rect class="st2" x="835.42" y="861.42" width="6.7" height="0"/>
    <!-- Alpaca con ojo -->
    <g>
      <g>
        <path d="M223,604.18h-116.22v14.66h14.66v58.63h-14.66v51.3h14.66v-29.32h6.81v-14.66h22.51v43.98h14.66v-58.63h6.81v-7.33h43.98v65.96h14.66v-58.63h7.85v-14.66h14.66v-14.66h21.46v-36.64h-6.8"/>
        <polygon points="238.71 684.8 238.71 692.13 238.71 699.46 238.71 706.79 238.71 714.12 238.71 721.45 238.71 728.78 245.52 728.78 253.37 728.78 253.37 721.45 253.37 714.12 253.37 706.79 253.37 699.46 253.37 692.13 253.37 684.8 253.37 677.47 253.37 670.14 245.52 670.14 238.71 670.14 238.71 677.47 238.71 684.8"/>
        <rect x="92.12" y="618.9" width="14.66" height="14.66"/>
      </g>
      <polyline points="265.15 604.18 265.15 596.85 265.15 589.52 265.15 582.19 265.15 574.86 265.15 567.53 265.15 560.2 265.15 555.07 265.15 552.87 265.15 547.74 265.15 545.54 265.15 540.41 265.15 533.08 265.15 525.75 265.15 518.42 265.15 511.09 265.15 503.77 257.3 503.77 257.3 511.09 257.3 518.42 249.44 518.42 242.64 518.42 242.64 511.09 242.64 503.77 234.78 503.77 234.78 511.09 234.78 518.42 227.98 518.42 220.12 518.42 213.32 518.42 205.47 518.42 205.47 525.75 205.47 533.08 198.66 533.08 190.81 533.08 190.81 540.41 190.81 540.41 190.81 547.74 198.66 547.74 205.47 547.74 213.32 547.74 220.12 547.74 220.12 547.74 220.12 552.87 220.12 555.07 220.12 560.2 220.12 567.53 220.12 574.86 220.12 582.19 220.12 589.52 220.12 596.85 220.12 604.18"/>
      <circle class="st2" cx="229.22" cy="533.08" r="9.49" transform="translate(-318.78 723.93) rotate(-85.93)"/>
    </g>
    <g>
      <path d="M277.59,970.56h-47.1l-.57-.02v-14.66h21.46v-36.64h-6.8v-56.44h0s6.8,0,6.8,0h22.51v-7.33h0v-7.33h-14.66v-14.66h-29.32v-14.66h-7.85v14.66h-14.66v-14.66h-7.85v100.41h-116.22v14.66h14.66v51.3h79.07v-8.78h-19.67v-9.84h-9.84v-9.84h-19.67v-9.84h19.67v9.84h9.84v9.84h19.67v9.84h9.84v8.78h24.76v.02h75.35v-14.66h-9.42ZM225.99,848.14c0-5.24,4.25-9.49,9.49-9.49s9.49,4.25,9.49,9.49-4.25,9.49-9.49,9.49-9.49-4.25-9.49-9.49Z"/>
      <rect x="68.67" y="933.91" width="14.66" height="14.66"/>
    </g>
    <g>
      <path d="M893.42,970.56h-47.1l-.57-.02v-14.66h21.46v-36.64h-7.58v-55.26h0s6.8,0,6.8,0h22.51v-7.33h0v-7.33h-14.66v-14.66h-12.06v6.64h-6.7v6.7h-6.7v6.7h-6.7v-6.7h6.7v-6.7h6.7v-6.7h6.36v-8.39h-6.33v-5.48h-6.02v-6.09h-13.85v-5.82h-22.78v-4.98h-6.01v5.08h-5.91v6.43h6.21v11.65l-5.84.06v24.03h6.02s.31,10.98.04,11.64c.39-.11,3.48-.13,7.18-.12v5.51h14.1v-6.7h6.7v-6.7h6.7v6.7h0v27.5h6.7v6.7h-6.7v-6.7h-6.7v-20.8h-6.7v6.7h-14.1v44.41h-115.45v14.66h14.66v51.3h79.07v-8.78h-19.67v-9.84h-9.84v-9.84h-19.67v-9.84h19.67v9.84h9.84v9.84h19.67v9.84h9.84v8.78h24.76v.02h75.35v-14.66h-9.42ZM836.92,830.52h-6.7v6.7h6.7v6.7h-6.7v-6.7h-6.7v6.7h-6.7v-6.7h6.7v-6.7h-6.7v-6.7h6.7v6.7h6.7v-6.7h6.7v6.7Z"/>
      <rect x="684.51" y="933.91" width="14.66" height="14.66"/>
    </g>
    <g>
      <path d="M594.97,970.56h-47.1l-.57-.02v-14.66h21.46v-36.64h-7.13v-56.44h0s6.8,0,6.8,0h22.51v-7.33h0v-7.33h-14.66v-14.66h-22.78l19.16-4.34-3.24-14.3-22.46,5.09h0s2.67-.61,2.67-.61l-3.24-14.3-44.01,9.97,3.24,14.3-19.78,4.48,3.24,14.3,27.51-6.23v77.39h-115.89v14.66h14.66v51.3h79.07v-8.78h-19.67v-9.84h-9.84v-9.84h-19.67v-9.84h19.67v9.84h9.84v9.84h19.67v9.84h9.84v8.78h24.76v.02h75.35v-14.66h-9.42ZM541.59,848.01c0-5.43,4.4-9.83,9.83-9.83s9.83,4.4,9.83,9.83-4.4,9.83-9.83,9.83-9.83-4.4-9.83-9.83Z"/>
      <rect x="386.05" y="933.91" width="14.66" height="14.66"/>
    </g>
    <!-- white alpaca -->
    <g>
      <circle class="circle" cx="4" cy="100" r="9.49" transform="translate(-318.78 723.93) rotate(-85.93)"/>
      <path class="st2" d="M1270.31,242.99h-6.8v-14.66h-29.32v-14.66h-7.85v14.66h-14.66v-14.66h-7.85v100.41h-116.22v14.66h14.66v58.63h-14.66v51.3h14.66v-29.32h6.81v-14.66h22.51v43.98h14.66v-58.63h6.81v-7.33h43.98v65.96h14.66v-58.63h7.85v-14.66h14.66v-14.66h21.46v-36.64h-6.8v-56.44h0s6.8,0,6.8,0h22.51v-7.33h0v-7.33h-7.85ZM1239.76,252.49c-5.24,0-9.49-4.25-9.49-9.49s4.25-9.49,9.49-9.49,9.49,4.25,9.49,9.49-4.25,9.49-9.49,9.49Z"/>
      <polygon class="st2" points="1219.53 394.71 1219.53 402.04 1219.53 409.37 1219.53 416.7 1219.53 424.03 1219.53 431.36 1219.53 438.69 1226.34 438.69 1234.19 438.69 1234.19 431.36 1234.19 424.03 1234.19 416.7 1234.19 409.37 1234.19 402.04 1234.19 394.71 1234.19 387.38 1234.19 380.05 1226.34 380.05 1219.53 380.05 1219.53 387.38 1219.53 394.71"/>
      <rect class="st2" x="1072.95" y="328.77" width="14.66" height="14.66"/>
    </g>
    <!-- - -->
    <g>
      <path class="st2" d="M1542.45,240.11h-6.8v-14.66h-22.78l19.16-4.34-3.24-14.3-22.46,5.09h0s2.67-.61,2.67-.61l-3.24-14.3-44.01,9.97,3.24,14.3-19.78,4.48,3.24,14.3,27.51-6.23v77.39h-116.22v14.61h-14.66v14.66h14.66v-14.61h14.66v58.63h-14.66v51.3h14.66v-29.32h6.81v-14.66h22.51v43.98h14.66v-58.63h6.81v-7.33h43.98v65.96h14.66v-58.63h7.85v-14.66h14.66v-14.66h21.46v-36.64h-6.8v-56.44h0s6.8,0,6.8,0h22.51v-7.33h0v-7.33h-7.85ZM1511.89,249.6c-5.24,0-9.49-4.25-9.49-9.49s4.25-9.49,9.49-9.49,9.49,4.25,9.49,9.49-4.25,9.49-9.49,9.49Z"/>
      <polygon class="st2" points="1491.67 391.82 1491.67 399.15 1491.67 406.48 1491.67 413.81 1491.67 421.14 1491.67 428.47 1491.67 435.8 1498.47 435.8 1506.33 435.8 1506.33 428.47 1506.33 421.14 1506.33 413.81 1506.33 406.48 1506.33 399.15 1506.33 391.82 1506.33 384.5 1506.33 377.17 1498.47 377.17 1491.67 377.17 1491.67 384.5 1491.67 391.82"/>
    </g>
    <g>
      <polygon class="st2" points="1775.96 391.82 1775.96 399.15 1775.96 406.48 1775.96 413.81 1775.96 421.14 1775.96 428.47 1775.96 435.8 1782.76 435.8 1790.62 435.8 1790.62 428.47 1790.62 421.14 1790.62 413.81 1790.62 406.48 1790.62 399.15 1790.62 391.82 1790.62 384.5 1790.62 377.17 1782.76 377.17 1775.96 377.17 1775.96 384.5 1775.96 391.82"/>
      <path class="st2" d="M1781.06,252.2h0v-6.7h6.7v-6.7h6.7v-6.7h6.7v-6.7h6.36v-8.39h-6.33v-5.48h-6.02v-6.09h-13.85v-5.82h-22.78v-4.98h-6.01v5.08h-5.91v6.43h6.21v11.65l-5.84.06v24.03h6.02s.31,10.98.04,11.64c.39-.11,3.48-.13,7.18-.12v5.51h14.1v-6.7h6.7ZM1769.14,228.01v6.7h-6.7v-6.7h6.7v-6.7h-6.7v-6.7h6.7v6.7h6.7v-6.7h6.7v6.7h-6.7v6.7h6.7v6.7h-6.7v-6.7h-6.7Z"/>
      <polygon class="st2" points="1826.74 240.11 1819.93 240.11 1819.93 232.78 1819.93 225.45 1812.08 225.45 1807.87 225.45 1807.87 232.09 1801.17 232.09 1801.17 238.8 1794.47 238.8 1794.47 245.5 1787.76 245.5 1787.76 252.2 1787.76 252.2 1787.76 279.71 1794.47 279.71 1794.47 286.41 1787.76 286.41 1787.76 279.71 1781.06 279.71 1781.06 258.91 1774.35 258.91 1774.35 265.61 1760.25 265.61 1760.25 267.23 1760.25 274.56 1760.25 281.88 1760.25 289.21 1760.25 296.54 1760.25 303.87 1760.25 311.2 1753.45 311.2 1746.64 311.2 1738.79 311.2 1731.98 311.2 1724.13 311.2 1717.32 311.2 1709.47 311.2 1702.66 311.2 1694.81 311.2 1688.01 311.2 1680.15 311.2 1673.35 311.2 1665.5 311.2 1658.69 311.2 1650.84 311.2 1644.03 311.2 1644.03 318.53 1644.03 325.81 1629.37 325.81 1629.37 340.47 1644.03 340.47 1644.03 325.86 1650.84 325.86 1658.69 325.86 1658.69 333.19 1658.69 340.52 1658.69 347.85 1658.69 355.18 1658.69 362.51 1658.69 369.84 1658.69 377.17 1658.69 384.5 1650.84 384.5 1644.03 384.5 1644.03 391.82 1644.03 399.15 1644.03 406.48 1644.03 413.81 1644.03 421.14 1644.03 428.47 1644.03 435.8 1650.84 435.8 1658.69 435.8 1658.69 428.47 1658.69 421.14 1658.69 413.81 1658.69 406.48 1665.5 406.48 1665.5 399.15 1665.5 391.82 1673.35 391.82 1680.15 391.82 1688.01 391.82 1688.01 399.15 1688.01 406.48 1688.01 413.81 1688.01 421.14 1688.01 428.47 1688.01 435.8 1694.81 435.8 1702.66 435.8 1702.66 428.47 1702.66 421.14 1702.66 413.81 1702.66 406.48 1702.66 399.15 1702.66 391.82 1702.66 384.5 1702.66 377.17 1709.47 377.17 1709.47 369.84 1717.32 369.84 1724.13 369.84 1731.98 369.84 1738.79 369.84 1746.64 369.84 1753.45 369.84 1753.45 377.17 1753.45 384.5 1753.45 391.82 1753.45 399.15 1753.45 406.48 1753.45 413.81 1753.45 421.14 1753.45 428.47 1753.45 435.8 1761.3 435.8 1768.1 435.8 1768.1 428.47 1768.1 421.14 1768.1 413.81 1768.1 406.48 1768.1 399.15 1768.1 391.82 1768.1 384.5 1768.1 377.17 1775.96 377.17 1775.96 369.84 1775.96 362.51 1782.76 362.51 1790.62 362.51 1790.62 355.18 1790.62 347.85 1797.42 347.85 1805.28 347.85 1812.08 347.85 1812.08 340.52 1812.08 333.19 1812.08 325.86 1812.08 318.53 1812.08 311.2 1805.28 311.2 1805.28 303.87 1805.28 296.54 1805.28 289.21 1805.28 281.88 1805.28 274.56 1805.28 267.23 1805.28 262.09 1805.28 259.9 1805.28 254.76 1805.28 254.76 1812.08 254.76 1819.93 254.76 1826.74 254.76 1834.59 254.76 1834.59 247.44 1834.59 247.43 1834.59 240.11 1826.74 240.11"/>
    </g>
    <g>
      <polygon points="815.19 391.82 815.19 399.15 815.19 406.48 815.19 413.81 815.19 421.14 815.19 428.47 815.19 435.8 821.99 435.8 829.85 435.8 829.85 428.47 829.85 421.14 829.85 413.81 829.85 406.48 829.85 399.15 829.85 391.82 829.85 384.5 829.85 377.17 821.99 377.17 815.19 377.17 815.19 384.5 815.19 391.82"/>
      <path d="M820.29,252.2h0v-6.7h6.7v-6.7h6.7v-6.7h6.7v-6.7h6.36v-8.39h-6.33v-5.48h-6.02v-6.09h-13.85v-5.82h-22.78v-4.98h-6.01v5.08h-5.91v6.43h6.21v11.65l-5.84.06v24.03h6.02s.31,10.98.04,11.64c.39-.11,3.48-.13,7.18-.12v5.51h14.1v-6.7h6.7ZM808.37,228.01v6.7h-6.7v-6.7h6.7v-6.7h-6.7v-6.7h6.7v6.7h6.7v-6.7h6.7v6.7h-6.7v6.7h6.7v6.7h-6.7v-6.7h-6.7Z"/>
      <polygon points="865.97 240.11 859.16 240.11 859.16 232.78 859.16 225.45 851.31 225.45 847.1 225.45 847.1 232.09 840.4 232.09 840.4 238.8 833.7 238.8 833.7 245.5 826.99 245.5 826.99 252.2 826.99 252.2 826.99 279.71 833.7 279.71 833.7 286.41 826.99 286.41 826.99 279.71 820.29 279.71 820.29 258.91 813.58 258.91 813.58 265.61 799.48 265.61 799.48 267.23 799.48 274.56 799.48 281.88 799.48 289.21 799.48 296.54 799.48 303.87 799.48 311.2 792.68 311.2 785.87 311.2 778.02 311.2 771.21 311.2 763.36 311.2 756.55 311.2 748.7 311.2 741.89 311.2 734.04 311.2 727.24 311.2 719.38 311.2 712.58 311.2 704.73 311.2 697.92 311.2 690.07 311.2 683.26 311.2 683.26 318.53 683.26 325.81 668.6 325.81 668.6 340.47 683.26 340.47 683.26 325.86 690.07 325.86 697.92 325.86 697.92 333.19 697.92 340.52 697.92 347.85 697.92 355.18 697.92 362.51 697.92 369.84 697.92 377.17 697.92 384.5 690.07 384.5 683.26 384.5 683.26 391.82 683.26 399.15 683.26 406.48 683.26 413.81 683.26 421.14 683.26 428.47 683.26 435.8 690.07 435.8 697.92 435.8 697.92 428.47 697.92 421.14 697.92 413.81 697.92 406.48 704.73 406.48 704.73 399.15 704.73 391.82 712.58 391.82 719.38 391.82 727.24 391.82 727.24 399.15 727.24 406.48 727.24 413.81 727.24 421.14 727.24 428.47 727.24 435.8 734.04 435.8 741.89 435.8 741.89 428.47 741.89 421.14 741.89 413.81 741.89 406.48 741.89 399.15 741.89 391.82 741.89 384.5 741.89 377.17 748.7 377.17 748.7 369.84 756.55 369.84 763.36 369.84 771.21 369.84 778.02 369.84 785.87 369.84 792.68 369.84 792.68 377.17 792.68 384.5 792.68 391.82 792.68 399.15 792.68 406.48 792.68 413.81 792.68 421.14 792.68 428.47 792.68 435.8 800.53 435.8 807.33 435.8 807.33 428.47 807.33 421.14 807.33 413.81 807.33 406.48 807.33 399.15 807.33 391.82 807.33 384.5 807.33 377.17 815.19 377.17 815.19 369.84 815.19 362.51 821.99 362.51 829.85 362.51 829.85 355.18 829.85 347.85 836.65 347.85 844.51 347.85 851.31 347.85 851.31 340.52 851.31 333.19 851.31 325.86 851.31 318.53 851.31 311.2 844.51 311.2 844.51 303.87 844.51 296.54 844.51 289.21 844.51 281.88 844.51 274.56 844.51 267.23 844.51 262.09 844.51 259.9 844.51 254.76 844.51 254.76 851.31 254.76 859.16 254.76 865.97 254.76 873.82 254.76 873.82 247.44 873.82 247.43 873.82 240.11 865.97 240.11"/>
    </g>
    <g>
      <polygon class="st2" points="1475.16 687.97 1475.16 695.3 1475.16 702.62 1475.16 709.96 1475.16 717.28 1475.16 724.61 1475.16 731.94 1481.97 731.94 1489.82 731.94 1489.82 724.61 1489.82 717.28 1489.82 709.96 1489.82 702.62 1489.82 695.3 1489.82 687.97 1489.82 680.64 1489.82 673.31 1481.97 673.31 1475.16 673.31 1475.16 680.64 1475.16 687.97"/>
      <path class="st2" d="M1503.05,592.68v-62.73l27.51,6.23,3.24-14.3-19.78-4.48,3.24-14.3-44.01-9.97-3.24,14.3-19.78-4.48-3.24,14.3,19.16,4.34h-22.78v14.66h-14.66v7.33h0v7.33h29.32v56.44h-114.79v14.61h-14.66v14.66h14.66v-14.61h14.66v58.63h-14.66v51.3h14.66v-29.32h6.81v-14.66h22.51v43.98h14.66v-58.63h6.81v-7.33h43.98v65.96h14.66v-58.63h7.85v-14.66h14.66v-14.66h21.46v-36.64h-8.24v-14.66ZM1472.68,508.04h0s-2.03-.46-2.03-.46l2.03.46ZM1457.62,536.25c0-5.24,4.25-9.49,9.49-9.49s9.5,4.25,9.5,9.49-4.25,9.49-9.5,9.49-9.49-4.25-9.49-9.49Z"/>
    </g>
    <rect class="st2" x="1770.26" y="575.85" width="6.7" height="6.7"/>
    <g>
      <polygon class="st2" points="1759.46 687.97 1759.46 695.3 1759.46 702.62 1759.46 709.96 1759.46 717.28 1759.46 724.61 1759.46 731.94 1766.26 731.94 1774.11 731.94 1774.11 724.61 1774.11 717.28 1774.11 709.96 1774.11 702.62 1774.11 695.3 1774.11 687.97 1774.11 680.64 1774.11 673.31 1766.26 673.31 1759.46 673.31 1759.46 680.64 1759.46 687.97"/>
      <path class="st2" d="M1801.17,502.28v-6.43h-5.91v-5.08h-6.01v4.98h-22.78v5.82h-13.85v6.09h-6.02v5.48h-6.33v8.39h6.36v6.7h6.7v6.7h6.7v6.7h6.7v6.7h0s6.7,0,6.7,0v6.7h14.1v-5.51c3.7-.01,6.79,0,7.18.12-.27-.66.04-11.64.04-11.64h6.02v-24.03l-5.84-.06v-11.65h6.21ZM1785.37,517.45h-6.7v6.7h6.7v6.7h-6.7v-6.7h-6.7v6.7h-6.7v-6.7h6.7v-6.7h-6.7v-6.7h6.7v6.7h6.7v-6.7h6.7v6.7Z"/>
      <polygon class="st2" points="1766.75 575.85 1760.05 575.85 1760.05 582.55 1753.34 582.55 1753.34 575.85 1760.05 575.85 1760.05 548.35 1760.05 548.35 1760.05 541.64 1753.34 541.64 1753.34 534.94 1746.64 534.94 1746.64 528.23 1739.93 528.23 1739.93 521.59 1735.73 521.59 1727.87 521.59 1727.87 528.92 1727.87 536.25 1721.07 536.25 1713.22 536.25 1713.22 543.58 1713.22 543.58 1713.22 550.91 1721.07 550.91 1727.87 550.91 1735.73 550.91 1742.53 550.91 1742.53 550.91 1742.53 556.04 1742.53 558.23 1742.53 563.37 1742.53 570.7 1742.53 578.03 1742.53 585.36 1742.53 592.68 1742.53 600.01 1742.53 607.35 1736.94 607.35 1730.14 607.35 1722.28 607.35 1715.48 607.35 1707.63 607.35 1700.82 607.35 1692.97 607.35 1686.16 607.35 1678.31 607.35 1671.5 607.35 1663.65 607.35 1656.84 607.35 1648.99 607.35 1642.19 607.35 1634.33 607.35 1627.53 607.35 1627.53 614.67 1627.53 621.96 1612.87 621.96 1612.87 636.62 1627.53 636.62 1627.53 622 1634.33 622 1642.19 622 1642.19 629.33 1642.19 636.66 1642.19 643.99 1642.19 651.32 1642.19 658.65 1642.19 665.98 1642.19 673.31 1642.19 680.64 1634.33 680.64 1627.53 680.64 1627.53 687.97 1627.53 695.3 1627.53 702.62 1627.53 709.96 1627.53 717.28 1627.53 724.61 1627.53 731.94 1634.33 731.94 1642.19 731.94 1642.19 724.61 1642.19 717.28 1642.19 709.96 1642.19 702.62 1648.99 702.62 1648.99 695.3 1648.99 687.97 1656.84 687.97 1663.65 687.97 1671.5 687.97 1671.5 695.3 1671.5 702.62 1671.5 709.96 1671.5 717.28 1671.5 724.61 1671.5 731.94 1678.31 731.94 1686.16 731.94 1686.16 724.61 1686.16 717.28 1686.16 709.96 1686.16 702.62 1686.16 695.3 1686.16 687.97 1686.16 680.64 1686.16 673.31 1692.97 673.31 1692.97 665.98 1700.82 665.98 1707.63 665.98 1715.48 665.98 1722.28 665.98 1730.14 665.98 1736.94 665.98 1736.94 673.31 1736.94 680.64 1736.94 687.97 1736.94 695.3 1736.94 702.62 1736.94 709.96 1736.94 717.28 1736.94 724.61 1736.94 731.94 1744.8 731.94 1751.6 731.94 1751.6 724.61 1751.6 717.28 1751.6 709.96 1751.6 702.62 1751.6 695.3 1751.6 687.97 1751.6 680.64 1751.6 673.31 1759.46 673.31 1759.46 665.98 1759.46 658.65 1766.26 658.65 1774.11 658.65 1774.11 651.32 1774.11 643.99 1780.92 643.99 1788.77 643.99 1795.58 643.99 1795.58 636.66 1795.58 629.33 1795.58 622 1795.58 614.67 1795.58 607.35 1788.77 607.35 1787.56 607.35 1787.56 600.01 1787.56 592.68 1787.56 585.36 1787.56 578.03 1787.56 570.7 1787.56 563.37 1787.56 561.75 1773.46 561.75 1773.46 555.05 1766.75 555.05 1766.75 575.85"/>
    </g>
    <g>
      <polygon points="794.72 687.97 794.72 695.3 794.72 702.62 794.72 709.96 794.72 717.28 794.72 724.61 794.72 731.94 801.53 731.94 809.38 731.94 809.38 724.61 809.38 717.28 809.38 709.96 809.38 702.62 809.38 695.3 809.38 687.97 809.38 680.64 809.38 673.31 801.53 673.31 794.72 673.31 794.72 680.64 794.72 687.97"/>
      <path d="M836.44,502.28v-6.43h-5.91v-5.08h-6.01v4.98h-22.78v5.82h-13.85v6.09h-6.02v5.48h-6.33v8.39h6.36v6.7h6.7v6.7h6.7v6.7h6.7v6.7h0s6.7,0,6.7,0v6.7h14.1v-5.51c3.7-.01,6.79,0,7.18.12-.27-.66.04-11.64.04-11.64h6.02v-24.03l-5.84-.06v-11.65h6.21ZM820.64,517.45h-6.7v6.7h6.7v6.7h-6.7v-6.7h-6.7v6.7h-6.7v-6.7h6.7v-6.7h-6.7v-6.7h6.7v6.7h6.7v-6.7h6.7v6.7Z"/>
      <polygon points="802.02 575.85 795.31 575.85 795.31 582.55 788.61 582.55 788.61 575.85 795.31 575.85 795.31 548.35 795.31 548.35 795.31 541.64 788.61 541.64 788.61 534.94 781.91 534.94 781.91 528.23 775.2 528.23 775.2 521.59 771 521.59 763.14 521.59 763.14 528.92 763.14 536.25 756.34 536.25 748.48 536.25 748.48 543.58 748.48 543.58 748.48 550.91 756.34 550.91 763.14 550.91 771 550.91 777.8 550.91 777.8 550.91 777.8 556.04 777.8 558.23 777.8 563.37 777.8 570.7 777.8 578.03 777.8 585.36 777.8 592.68 777.8 600.01 777.8 607.35 772.21 607.35 765.41 607.35 757.55 607.35 750.75 607.35 742.89 607.35 736.09 607.35 728.24 607.35 721.43 607.35 713.58 607.35 706.77 607.35 698.92 607.35 692.11 607.35 684.26 607.35 677.45 607.35 669.6 607.35 662.79 607.35 662.79 614.67 662.79 621.96 648.13 621.96 648.13 636.62 662.79 636.62 662.79 622 669.6 622 677.45 622 677.45 629.33 677.45 636.66 677.45 643.99 677.45 651.32 677.45 658.65 677.45 665.98 677.45 673.31 677.45 680.64 669.6 680.64 662.79 680.64 662.79 687.97 662.79 695.3 662.79 702.62 662.79 709.96 662.79 717.28 662.79 724.61 662.79 731.94 669.6 731.94 677.45 731.94 677.45 724.61 677.45 717.28 677.45 709.96 677.45 702.62 684.26 702.62 684.26 695.3 684.26 687.97 692.11 687.97 698.92 687.97 706.77 687.97 706.77 695.3 706.77 702.62 706.77 709.96 706.77 717.28 706.77 724.61 706.77 731.94 713.58 731.94 721.43 731.94 721.43 724.61 721.43 717.28 721.43 709.96 721.43 702.62 721.43 695.3 721.43 687.97 721.43 680.64 721.43 673.31 728.24 673.31 728.24 665.98 736.09 665.98 742.89 665.98 750.75 665.98 757.55 665.98 765.41 665.98 772.21 665.98 772.21 673.31 772.21 680.64 772.21 687.97 772.21 695.3 772.21 702.62 772.21 709.96 772.21 717.28 772.21 724.61 772.21 731.94 780.07 731.94 786.87 731.94 786.87 724.61 786.87 717.28 786.87 709.96 786.87 702.62 786.87 695.3 786.87 687.97 786.87 680.64 786.87 673.31 794.72 673.31 794.72 665.98 794.72 658.65 801.53 658.65 809.38 658.65 809.38 651.32 809.38 643.99 816.19 643.99 824.04 643.99 830.84 643.99 830.84 636.66 830.84 629.33 830.84 622 830.84 614.67 830.84 607.35 824.04 607.35 822.83 607.35 822.83 600.01 822.83 592.68 822.83 585.36 822.83 578.03 822.83 570.7 822.83 563.37 822.83 561.75 808.72 561.75 808.72 555.05 802.02 555.05 802.02 575.85"/>
    </g>
    <g>
      <path class="st2" d="M1242.32,970.56h-47.1l-.57-.02v-14.66h21.46v-36.64h-6.8v-56.44h0s6.8,0,6.8,0h22.51v-7.33h0v-7.33h-14.66v-14.66h-29.32v-14.66h-7.85v14.66h-14.66v-14.66h-7.85v100.41h-116.22v14.66h14.66v51.3h79.07v-8.78h-19.67v-9.84h-9.84v-9.84h-19.67v-9.84h19.67v9.84h9.84v9.84h19.67v9.84h9.84v8.78h24.76v.02h75.35v-14.66h-9.42ZM1190.73,848.14c0-5.24,4.25-9.49,9.49-9.49s9.49,4.25,9.49,9.49-4.25,9.49-9.49,9.49-9.49-4.25-9.49-9.49Z"/>
      <rect class="st2" x="1033.4" y="933.91" width="14.66" height="14.66"/>
    </g>
    <g>
      <path class="st2" d="M1858.16,970.56h-47.1l-.57-.02v-14.66h21.46v-36.64h-7.58v-55.26h0s6.8,0,6.8,0h22.51v-7.33h0v-7.33h-14.66v-14.66h-12.06v6.64h-6.7v6.7h-6.7v6.7h-6.7v-6.7h6.7v-6.7h6.7v-6.7h6.36v-8.39h-6.33v-5.48h-6.02v-6.09h-13.85v-5.82h-22.78v-4.98h-6.01v5.08h-5.91v6.43h6.21v11.65l-5.84.06v24.03h6.02s.31,10.98.04,11.64c.39-.11,3.48-.13,7.18-.12v5.51h14.1v-6.7h6.7v-6.7h6.7v6.7h0v27.5h6.7v6.7h-6.7v-6.7h-6.7v-20.8h-6.7v6.7h-14.1v44.41h-115.45v14.66h14.66v51.3h79.07v-8.78h-19.67v-9.84h-9.84v-9.84h-19.67v-9.84h19.67v9.84h9.84v9.84h19.67v9.84h9.84v8.78h24.76v.02h75.35v-14.66h-9.42ZM1801.65,830.52h-6.7v6.7h6.7v6.7h-6.7v-6.7h-6.7v6.7h-6.7v-6.7h6.7v-6.7h-6.7v-6.7h6.7v6.7h6.7v-6.7h6.7v6.7Z"/>
      <rect class="st2" x="1649.24" y="933.91" width="14.66" height="14.66"/>
    </g>
    <g>
      <path class="st2" d="M1559.7,970.56h-47.1l-.57-.02v-14.66h21.46v-36.64h-7.13v-56.44h0s6.8,0,6.8,0h22.51v-7.33h0v-7.33h-14.66v-14.66h-22.78l19.16-4.34-3.24-14.3-22.46,5.09h0s2.67-.61,2.67-.61l-3.24-14.3-44.01,9.97,3.24,14.3-19.78,4.48,3.24,14.3,27.51-6.23v77.39h-115.89v14.66h14.66v51.3h79.07v-8.78h-19.67v-9.84h-9.84v-9.84h-19.67v-9.84h19.67v9.84h9.84v9.84h19.67v9.84h9.84v8.78h24.76v.02h75.35v-14.66h-9.42ZM1506.32,848.01c0-5.43,4.4-9.83,9.83-9.83s9.83,4.4,9.83,9.83-4.4,9.83-9.83,9.83-9.83-4.4-9.83-9.83Z"/>
      <rect class="st2" x="1350.79" y="933.91" width="14.66" height="14.66"/>
    </g>
    <g>
      <path class="st2" d="M1232.76,604.18h-2.88v-100.41h-7.85v14.66h-14.66v-14.66h-7.85v14.66h-29.32v14.66h-14.66v7.33h0v7.33h29.32v56.44h-113.34v14.66h14.66v58.63h-14.66v51.3h14.66v-29.32h6.81v-14.66h22.51v43.98h14.66v-58.63h6.81v-7.33h43.98v65.96h14.66v-58.63h7.85v-14.66h14.66v-14.66h21.46v-36.64h-6.8ZM1184.45,533.08c0-5.24,4.25-9.49,9.49-9.49s9.49,4.25,9.49,9.49-4.25,9.49-9.49,9.49-9.49-4.25-9.49-9.49Z"/>
      <polygon class="st2" points="1203.44 684.8 1203.44 692.13 1203.44 699.46 1203.44 706.79 1203.44 714.12 1203.44 721.45 1203.44 728.78 1210.25 728.78 1218.1 728.78 1218.1 721.45 1218.1 714.12 1218.1 706.79 1218.1 699.46 1218.1 692.13 1218.1 684.8 1218.1 677.47 1218.1 670.14 1210.25 670.14 1203.44 670.14 1203.44 677.47 1203.44 684.8"/>
      <rect class="st2" x="1056.85" y="618.9" width="14.66" height="14.66"/>
    </g>
  </g>

</svg>