<svg width="120" height="600" viewBox="0 0 120 600" fill="none" xmlns="http://www.w3.org/2000/svg">
<g clip-path="url(#clip0_81_461)">
<rect width="120" height="600" fill="black"/>
<rect x="126" width="406" height="126" transform="rotate(90 126 0)" fill="#EE4131"/>
<path d="M62.8211 58.5561L62.8211 26.7013L30.9664 26.7013L30.9664 58.5561L23.0035 58.5561L23.0035 18.7385L102.639 18.7385L102.639 58.5561L94.6758 58.5561L94.6758 26.7013L70.7839 26.7013L70.7839 58.5561L62.8211 58.5561ZM70.7839 66.5189L70.7839 58.5561L94.6758 58.5561L94.6758 66.5189L70.7839 66.5189ZM62.8211 66.5189L30.9664 66.5189L30.9664 58.5561L62.8211 58.5561L62.8211 66.5189ZM23.0002 124.582L23.0002 76.7981L102.639 76.7981L102.639 84.761L30.9664 84.761L30.9663 124.579L23.0035 124.579L23.0002 124.582ZM54.8549 142.824L23.0002 142.824L23.0002 134.861L102.639 134.861L102.639 142.824L70.7839 142.824L70.7839 150.787L54.8549 150.787L54.8549 142.824ZM70.7839 150.787L78.7468 150.787L78.7468 158.75L70.7839 158.75L70.7839 150.787ZM54.8549 150.787L54.8549 158.75L46.8921 158.75L46.8921 150.787L54.8549 150.787ZM78.7468 158.75L86.7097 158.75L86.7097 166.713L78.7468 166.713L78.7468 158.75ZM46.8921 158.75L46.8921 166.713L38.9292 166.713L38.9292 158.75L46.8921 158.75ZM86.7097 166.716L94.6725 166.716L94.6725 174.679L86.7097 174.679L86.7097 166.716ZM38.9292 166.716L38.9292 174.679L30.9663 174.679L30.9663 166.716L38.9292 166.716ZM94.6758 174.679L102.639 174.679L102.639 182.642L94.6758 182.642L94.6758 174.679ZM30.9631 174.679L30.9631 182.642L23.0002 182.642L23.0002 174.679L30.9631 174.679ZM38.9292 228.473L23.0002 228.473L23.0002 220.51L38.9292 220.51L38.9292 228.473ZM38.9292 260.328L46.8921 260.328L46.8921 236.436L38.9292 236.436L38.9292 228.473L62.8211 228.473L62.8211 236.436L54.8582 236.436L54.8582 260.328L62.8211 260.328L62.8211 268.291L38.9292 268.291L38.9292 260.328ZM62.8211 236.439L86.7129 236.439L86.7129 244.402L62.8211 244.402L62.8211 236.439ZM86.7097 244.402L102.639 244.402L102.639 252.365L86.7097 252.365L86.7097 244.402ZM86.7097 260.328L62.8178 260.328L62.8178 252.365L86.7097 252.365L86.7097 260.328ZM23.0002 276.257L23.0002 268.294L38.9292 268.294L38.9292 276.257L23.0002 276.257ZM23.0002 331.045L23.0002 283.262L102.639 283.262L102.639 291.225L30.9663 291.225L30.9663 331.042L23.0035 331.042L23.0002 331.045ZM54.8549 377.871L54.8549 346.016L23.0002 346.016L23.0002 338.053L102.639 338.053L102.639 377.871L94.6758 377.871L94.6758 346.016L62.8211 346.016L62.8211 377.871L54.8549 377.871ZM62.8211 385.834L62.8211 377.871L94.6758 377.871L94.6758 385.834L62.8211 385.834Z" fill="white"/>
<path d="M62.8211 58.5561L62.8211 26.7013L30.9664 26.7013L30.9664 58.5561M62.8211 58.5561L70.7839 58.5561M62.8211 58.5561L30.9664 58.5561M62.8211 58.5561L62.8211 66.5189L30.9664 66.5189L30.9664 58.5561M30.9664 58.5561L23.0035 58.5561L23.0035 18.7385L102.639 18.7385L102.639 58.5561L94.6758 58.5561M94.6758 58.5561L94.6758 26.7013L70.7839 26.7013L70.7839 58.5561M94.6758 58.5561L70.7839 58.5561M94.6758 58.5561L94.6758 66.5189L70.7839 66.5189L70.7839 58.5561M70.7839 150.787L70.7839 142.824L102.639 142.824L102.639 134.861L23.0002 134.861L23.0002 142.824L54.8549 142.824L54.8549 150.787M70.7839 150.787L54.8549 150.787M70.7839 150.787L78.7468 150.787L78.7468 158.75M70.7839 150.787L70.7839 158.75L78.7468 158.75M54.8549 150.787L54.8549 158.75L46.8921 158.75M54.8549 150.787L46.8921 150.787L46.8921 158.75M78.7468 158.75L86.7097 158.75L86.7097 166.713L78.7468 166.713L78.7468 158.75ZM46.8921 158.75L46.8921 166.713L38.9292 166.713L38.9292 158.75L46.8921 158.75ZM38.9292 228.473L23.0002 228.473L23.0002 220.51L38.9292 220.51L38.9292 228.473ZM38.9292 228.473L38.9292 236.436L46.8921 236.436L46.8921 260.328L38.9292 260.328L38.9292 268.291L62.8211 268.291L62.8211 260.328L54.8582 260.328L54.8582 236.436L62.8211 236.436L62.8211 228.473L38.9292 228.473ZM86.7097 252.365L102.639 252.365L102.639 244.402L86.7097 244.402L86.7097 252.365ZM86.7097 252.365L62.8178 252.365L62.8178 260.328L86.7097 260.328L86.7097 252.365ZM94.6758 377.871L102.639 377.871L102.639 338.053L23.0002 338.053L23.0002 346.016L54.8549 346.016L54.8549 377.871L62.8211 377.871M94.6758 377.871L94.6758 346.016L62.8211 346.016L62.8211 377.871M94.6758 377.871L62.8211 377.871M94.6758 377.871L94.6758 385.834L62.8211 385.834L62.8211 377.871M23.0002 124.582L23.0002 76.7981L102.639 76.7981L102.639 84.761L30.9664 84.761L30.9663 124.579L23.0035 124.579L23.0002 124.582ZM86.7097 166.716L94.6725 166.716L94.6725 174.679L86.7097 174.679L86.7097 166.716ZM38.9292 166.716L38.9292 174.679L30.9663 174.679L30.9663 166.716L38.9292 166.716ZM94.6758 174.679L102.639 174.679L102.639 182.642L94.6758 182.642L94.6758 174.679ZM30.9631 174.679L30.9631 182.642L23.0002 182.642L23.0002 174.679L30.9631 174.679ZM62.8211 236.439L86.7129 236.439L86.7129 244.402L62.8211 244.402L62.8211 236.439ZM23.0002 276.257L23.0002 268.294L38.9292 268.294L38.9292 276.257L23.0002 276.257ZM23.0002 331.045L23.0002 283.262L102.639 283.262L102.639 291.225L30.9663 291.225L30.9663 331.042L23.0035 331.042L23.0002 331.045Z" stroke="white" stroke-width="0.65619" stroke-miterlimit="10"/>
<rect x="-14" y="406" width="134" height="120" fill="#9ACB57"/>
<path d="M3.68167 446L15.7569 428.179L4.55809 411.186H9.62189L18.2401 425.112H18.3375L27.1504 411.186H31.9708L20.5772 428.228L32.3116 446H27.053L18.094 431.344H17.9966L8.64808 446H3.68167ZM33.6852 446L45.7604 428.179L34.5616 411.186H39.6254L48.2436 425.112H48.341L57.154 411.186H61.9743L50.5808 428.228L62.3151 446H57.0566L48.0975 431.344H48.0002L38.6516 446H33.6852ZM65.1494 446V441.18H69.8724V446H65.1494ZM76.1029 446V421.704H68.7993V418.977C72.8893 418.879 76.395 417.37 77.028 412.452H80.1929V446H76.1029ZM99.0703 446.73C90.8416 446.73 86.1186 439.914 86.1186 429.299C86.1186 418.49 91.2311 411.868 99.119 411.868C107.007 411.868 112.022 418.393 112.022 429.299C112.022 439.914 107.396 446.73 99.0703 446.73ZM99.119 443.176C105.059 443.176 107.786 437.917 107.786 429.299C107.786 420.827 104.913 415.374 99.119 415.374C93.2274 415.374 90.3547 420.681 90.3547 429.299C90.3547 437.771 93.2274 443.176 99.119 443.176ZM115.076 446V441.18H119.799V446H115.076Z" fill="black"/>
<path d="M5.5094 485C5.89892 476.09 12.18 472.827 18.0228 469.468C22.405 466.936 25.0829 465.232 25.0829 461.19C25.0829 457.1 22.2589 454.325 17.8281 454.325C15.4909 454.325 13.7381 455.104 12.5208 456.419C11.2062 457.831 10.6219 459.681 10.6219 463.089H6.33714C6.33714 458.805 7.45702 456.078 9.50201 454.033C11.6444 451.939 14.7606 450.917 18.1689 450.917C24.9369 450.917 29.319 455.201 29.319 461.142C29.319 467.569 24.9369 469.711 19.5809 472.681C15.9778 474.678 11.3522 477.404 10.4271 481.105H28.6373V485H5.5094ZM46.1495 485.73C37.9208 485.73 33.1979 478.914 33.1979 468.299C33.1979 457.49 38.3104 450.868 46.1982 450.868C54.086 450.868 59.1011 457.393 59.1011 468.299C59.1011 478.914 54.4756 485.73 46.1495 485.73ZM46.1982 482.176C52.1384 482.176 54.8651 476.917 54.8651 468.299C54.8651 459.827 51.9923 454.374 46.1982 454.374C40.3067 454.374 37.4339 459.681 37.4339 468.299C37.4339 476.771 40.3067 482.176 46.1982 482.176ZM62.5209 485C62.9104 476.09 69.1915 472.827 75.0343 469.468C79.4164 466.936 82.0944 465.232 82.0944 461.19C82.0944 457.1 79.2704 454.325 74.8395 454.325C72.5024 454.325 70.7495 455.104 69.5323 456.419C68.2176 457.831 67.6334 459.681 67.6334 463.089H63.3486C63.3486 458.805 64.4685 456.078 66.5135 454.033C68.6559 451.939 71.772 450.917 75.1804 450.917C81.9483 450.917 86.3305 455.201 86.3305 461.142C86.3305 467.569 81.9483 469.711 76.5924 472.681C72.9893 474.678 68.3637 477.404 67.4386 481.105H85.6488V485H62.5209ZM101.457 485.73C94.5428 485.73 89.479 481.543 89.1868 475.359H93.2281C93.7637 479.498 96.6852 482.127 101.408 482.127C106.18 482.127 109.247 478.914 109.247 474.045C109.247 469.03 105.79 466.108 101.408 466.108C97.805 466.108 95.3218 467.569 93.9098 469.565H89.9659L93.6663 451.647H111.438V455.299H96.5391L94.348 465.329H94.4454C96.3443 463.528 98.8762 462.505 102.09 462.505C108.03 462.505 113.435 466.741 113.435 474.142C113.435 481.251 108.371 485.73 101.457 485.73Z" fill="black"/>
<path fill-rule="evenodd" clip-rule="evenodd" d="M77.6765 500.702H87.3847V491H92.5835V557.493H99V581.757H84.7889V591.465H75.0807V601.173H84.7824V640.005H75.0742V601.173H69.8825V639.999H60.1743V596.319H31.0504V601.173H26.5403V639.999H16.8321V610.875H1.9258V620.582H-2.58361V639.999H-12.2918V606.027H-2.58361V567.201H-12.2918V557.493H62.7637V520.117H43.3538V510.409H53.062V500.702H72.4719V491H77.6765V500.702ZM69.2391 504.17C65.7771 503.924 62.7709 506.53 62.5244 509.992C62.2781 513.454 64.8847 516.46 68.3466 516.707C71.8086 516.953 74.8148 514.347 75.0613 510.885C75.3076 507.423 72.701 504.416 69.2391 504.17Z" fill="white"/>
<path d="M-12.2918 576.949H-22V567.241H-12.2918V576.949Z" fill="white"/>
<rect width="43" height="34" transform="translate(100 494)" fill="black"/>
</g>
<defs>
<clipPath id="clip0_81_461">
<rect width="120" height="600" fill="white"/>
</clipPath>
</defs>
</svg>
